<svg xmlns="http://www.w3.org/2000/svg" viewBox="0 0 429.45 35.18"><defs><style>.cls-1{isolation:isolate;}.cls-2{fill:#b26e00;}.cls-3{fill:ivory;mix-blend-mode:overlay;}.cls-3,.cls-4{opacity:0.75;}.cls-4{fill:#774600;mix-blend-mode:multiply;}.cls-5{fill:#ffbf1f;}.cls-6{fill:#fff683;}.cls-7{fill:#ff9100;}</style></defs><g class="cls-1"><g id="Слой_1" data-name="Слой 1"><path class="cls-2" d="M0,25.2V9.26C0,6.4,2,4.09,4.46,4.09L425,4.23c2.46,0,4.46,2.31,4.46,5.17V25.34c0,2.86-2,5.17-4.46,5.17L4.46,30.37C2,30.37,0,28.06,0,25.2Z"/><path class="cls-3" d="M392.3,9.73h37.15V8.08c0-2.13-2.68-3.85-6-3.85H394.14Z"/><path class="cls-4" d="M51.44,4.69,49,4.09H6c-3.31,0-6,1.72-6,3.85V26.52c0,2.13,2.68,3.85,6,3.85l417.47.14c3.31,0,6-1.72,6-3.85V24.54l-49.56.95L36.7,21.59Z"/><polygon class="cls-4" points="411.27 6.15 411.27 6.98 396.14 7.9 411.27 21.04 411.27 21.69 400.65 22.7 411.27 26.23 411.27 26.89 400.35 27.86 394.57 26.17 394.57 5.78 411.27 6.15"/><polygon class="cls-4" points="14.88 4.09 14.88 8.88 37.17 11.2 14.88 13.08 14.88 23.78 26.02 25.35 14.88 26.4 14.88 30.37 39.2 30.37 46.63 5.56 39.42 3.5 14.88 4.09"/><polygon class="cls-5" points="411.27 28.08 399.45 27.15 411.27 26.23 411.27 22.75 400.36 21.9 411.27 21.04 411.27 8.44 396.72 7.29 411.27 6.15 411.27 0.14 18.18 0 18.18 7.45 44.21 9.49 18.18 11.53 18.18 22.69 36.02 24.09 18.18 25.49 18.18 35.05 411.27 35.18 411.27 28.08"/><polygon class="cls-6" points="398.58 7.15 411.27 6.15 411.27 0.14 18.18 0 18.18 7.01 396.72 7.15 398.58 7.15"/><polygon class="cls-7" points="411.27 28.32 381.23 28.32 381.23 20.92 376.11 28.32 367.8 28.32 367.8 15.17 361.88 28.32 334.74 28.32 334.74 12.63 329.09 28.32 143.75 28.18 143.75 19.43 138.63 28.18 134.45 28.18 134.45 20.34 129.59 28.18 67.36 28.18 67.36 17.52 60.92 28.18 56.87 28.18 56.87 15.21 50.87 28.18 18.18 27.49 18.18 35.05 411.27 35.18 411.27 29.51 411.27 28.32"/></g></g></svg>